<?xml version="1.0"?>
<svg xmlns="http://www.w3.org/2000/svg" height="512px" viewBox="0 0 512 512" width="512px"><path d="m256 512c-68.378906 0-132.667969-26.628906-181.019531-74.980469-48.351563-48.351562-74.980469-112.640625-74.980469-181.019531s26.628906-132.667969 74.980469-181.019531c48.351562-48.351563 112.640625-74.980469 181.019531-74.980469 63.570312 0 124.527344 23.460938 171.644531 66.0625l-10.132812 11.203125c-44.332031-40.085937-101.691407-62.160156-161.511719-62.160156-64.34375 0-124.839844 25.054687-170.339844 70.554687s-70.554687 105.992188-70.554687 170.339844 25.054687 124.839844 70.554687 170.339844 105.996094 70.554687 170.339844 70.554687c64.347656 0 124.839844-25.054687 170.339844-70.554687s70.554687-105.992188 70.554687-170.339844c0-56.863281-20.183593-112.058594-56.832031-155.417969l11.535156-9.75c38.949219 46.082031 60.402344 104.738281 60.402344 165.167969 0 68.378906-26.628906 132.667969-74.980469 181.019531-48.351562 48.351563-112.636719 74.980469-181.019531 74.980469zm0 0" fill="#FFFFFF"/><path d="m256 471.925781c-46.160156 0-90.191406-14.359375-127.335938-41.523437l8.914063-12.191406c34.539063 25.261718 75.488281 38.613281 118.421875 38.613281 110.734375 0 200.824219-90.089844 200.824219-200.824219s-90.089844-200.824219-200.824219-200.824219-200.824219 90.089844-200.824219 200.824219c0 55.210938 21.945313 106.675781 61.792969 144.914062l-10.460938 10.898438c-20.777343-19.941406-37.121093-43.382812-48.570312-69.675781-11.855469-27.222657-17.867188-56.203125-17.867188-86.136719 0-57.675781 22.460938-111.898438 63.246094-152.683594 40.78125-40.785156 95.007813-63.242187 152.683594-63.242187s111.898438 22.457031 152.683594 63.242187 63.242187 95.007813 63.242187 152.683594-22.457031 111.902344-63.242187 152.683594c-40.785156 40.785156-95.007813 63.242187-152.683594 63.242187zm0 0" fill="#FFFFFF"/><path d="m103.265625 256h-15.105469c0-92.546875 75.292969-167.839844 167.839844-167.839844v15.105469c-84.21875 0-152.734375 68.515625-152.734375 152.734375zm0 0" fill="#FFFFFF"/><path d="m256 423.839844v-15.105469c84.21875 0 152.738281-68.515625 152.738281-152.734375h15.101563c0 92.546875-75.292969 167.839844-167.839844 167.839844zm0 0" fill="#FFFFFF"/><path d="m87.695312 272.492188h16.03125v15.101562h-16.03125zm0 0" fill="#FFFFFF"/><path d="m87.695312 304.546875h16.03125v15.105469h-16.03125zm0 0" fill="#FFFFFF"/><path d="m408.273438 224.40625h16.03125v15.101562h-16.03125zm0 0" fill="#FFFFFF"/><path d="m408.273438 192.347656h16.03125v15.105469h-16.03125zm0 0" fill="#FFFFFF"/><path d="m335.683594 359.726562h-63.191406v-207.453124h63.191406zm-48.089844-15.105468h32.984375v-177.242188h-32.984375zm0 0" fill="#FFFFFF"/><path d="m239.507812 359.726562h-63.191406v-207.453124h63.191406zm-48.085937-15.105468h32.984375v-177.242188h-32.984375zm0 0" fill="#FFFFFF"/></svg>
